nColumns=19
nRows=58
DataType=double
version=3
OpenSimVersion=4.1
endheader
time	ground_force_calcn_r_vx	ground_force_calcn_r_vy	ground_force_calcn_r_vz	ground_force_calcn_r_px	ground_force_calcn_r_py	ground_force_calcn_r_pz	ground_force_calcn_r_mx	ground_force_calcn_r_my	ground_force_calcn_r_mz	ground_force_calcn_l_vx	ground_force_calcn_l_vy	ground_force_calcn_l_vz	ground_force_calcn_l_px	ground_force_calcn_l_py	ground_force_calcn_l_pz	ground_force_calcn_l_mx	ground_force_calcn_l_my	ground_force_calcn_l_mz
6.59	-20.78	510.046	-45.5386	-0.155797	0	-0.437739	0.171314	-4.20491	0.375428	9.0572	210.289	43.078	-0.256878	0	-0.995723	0.0208327	0.483692	0.0990847
6.6	-20.817	506.376	-46.5129	-0.154831	0	-0.437808	0.164919	-4.01167	0.36849	9.03315	212.249	45.0975	-0.255985	0	-0.996674	0.0176503	0.414724	0.0881182
6.61	-20.8118	502.732	-47.5811	-0.153865	0	-0.437837	0.158252	-3.82275	0.361804	9.0207	213.84	46.9137	-0.255082	0	-0.997556	0.0149397	0.354152	0.0776965
6.62	-20.776	499.125	-48.7215	-0.152907	0	-0.437831	0.151511	-3.63993	0.355307	9.02069	215.029	48.5095	-0.254173	0	-0.998373	0.0127168	0.303135	0.0683857
6.63	-20.7231	495.557	-49.9089	-0.151963	0	-0.437791	0.144891	-3.46481	0.34895	9.03319	215.802	49.8736	-0.253264	0	-0.999128	0.0109791	0.262289	0.0606172
6.64	-20.6672	492.026	-51.1184	-0.151039	0	-0.437726	0.138558	-3.29866	0.34271	9.05654	216.157	51.0011	-0.25236	0	-0.999821	0.00970842	0.231716	0.054672
6.65	-20.6207	488.525	-52.3278	-0.15014	0	-0.437637	0.132635	-3.14225	0.336579	9.08734	216.102	51.8907	-0.25147	0	-1.00045	0.00887785	0.21112	0.0506945
6.66	-20.5921	485.049	-53.5193	-0.149271	0	-0.437531	0.127183	-2.99581	0.330552	9.12091	215.648	52.5443	-0.2506	0	-1.00103	0.00845516	0.199907	0.048709
6.67	-20.5864	481.593	-54.6791	-0.148438	0	-0.437411	0.122218	-2.85913	0.32462	9.15254	214.808	52.9652	-0.249761	0	-1.00154	0.00839988	0.197143	0.0486096
6.68	-20.6062	478.153	-55.7969	-0.147646	0	-0.437283	0.117721	-2.73164	0.318762	9.18012	213.598	53.1586	-0.248968	0	-1.00198	0.00866098	0.201519	0.0501525
6.69	-20.653	474.721	-56.8654	-0.1469	0	-0.43715	0.113654	-2.61241	0.312933	9.20695	212.038	53.1318	-0.248241	0	-1.00235	0.00918229	0.21147	0.0529896
6.7	-20.7284	471.288	-57.8798	-0.146203	0	-0.437016	0.109969	-2.50029	0.307065	9.24117	210.154	52.8956	-0.2476	0	-1.00265	0.00990109	0.225161	0.056673
6.71	-20.8345	467.839	-58.838	-0.145555	0	-0.436885	0.106607	-2.39387	0.301066	9.29184	207.978	52.4661	-0.247059	0	-1.00288	0.0107515	0.240649	0.0607078
6.72	-20.9733	464.362	-59.7407	-0.144961	0	-0.436759	0.103516	-2.29191	0.294857	9.36408	205.552	51.8641	-0.246623	0	-1.00304	0.0116644	0.256046	0.0646045
6.73	-21.1463	460.845	-60.5899	-0.144418	0	-0.436644	0.100655	-2.19359	0.288404	9.4563	202.918	51.1138	-0.246286	0	-1.00312	0.0125654	0.269634	0.0679191
6.74	-21.3544	457.286	-61.3866	-0.143934	0	-0.43654	0.0980118	-2.09884	0.281751	9.56215	200.124	50.2407	-0.246038	0	-1.00314	0.0133861	0.280155	0.0703323
6.75	-21.5956	453.692	-62.1296	-0.143509	0	-0.436453	0.0955952	-2.00831	0.275023	9.67408	197.219	49.272	-0.245863	0	-1.0031	0.0140746	0.28693	0.071685
6.76	-21.8647	450.077	-62.815	-0.143151	0	-0.436382	0.0934291	-1.92321	0.268412	9.78562	194.254	48.2355	-0.245749	0	-1.00301	0.0145949	0.289722	0.0719414
6.77	-22.1528	446.46	-63.4387	-0.142866	0	-0.436331	0.0915428	-1.84492	0.26215	9.89188	191.276	47.1582	-0.245684	0	-1.00286	0.014928	0.288659	0.0711674
6.78	-22.4496	442.854	-63.9991	-0.142661	0	-0.436301	0.0899669	-1.77474	0.256476	9.98938	188.332	46.0654	-0.245665	0	-1.00267	0.0150643	0.28401	0.0694681
6.79	-22.7447	439.263	-64.4966	-0.142538	0	-0.436288	0.0887307	-1.71363	0.251611	10.076	185.459	44.9798	-0.245682	0	-1.00245	0.0149942	0.275983	0.066935
6.8	-23.0272	435.676	-64.9335	-0.1425	0	-0.43629	0.0878541	-1.66221	0.247737	10.1507	182.689	43.922	-0.245729	0	-1.00221	0.0147116	0.264774	0.063657
6.81	-23.2875	432.067	-65.3125	-0.142543	0	-0.436303	0.0873482	-1.62062	0.244978	10.2129	180.047	42.9108	-0.245798	0	-1.00196	0.0142077	0.250473	0.0596956
6.82	-23.5179	428.402	-65.6362	-0.142661	0	-0.436323	0.0872191	-1.58878	0.24342	10.2619	177.559	41.9643	-0.245878	0	-1.00171	0.0134683	0.233038	0.0550763
6.83	-23.7116	424.646	-65.9077	-0.142849	0	-0.436347	0.087462	-1.56634	0.243105	10.2959	175.254	41.1007	-0.245959	0	-1.00148	0.0124783	0.212402	0.0498126
6.84	-23.862	420.77	-66.1316	-0.143103	0	-0.436369	0.0880514	-1.55265	0.244027	10.3124	173.168	40.3383	-0.246032	0	-1.00127	0.011224	0.188475	0.0439042
6.85	-23.9622	416.748	-66.3135	-0.143415	0	-0.436386	0.0889331	-1.54671	0.246115	10.3092	171.335	39.694	-0.246089	0	-1.0011	0.00970083	0.161225	0.0373518
6.86	-24.0053	412.558	-66.4584	-0.143783	0	-0.436396	0.0900369	-1.54739	0.249267	10.2842	169.794	39.1831	-0.246123	0	-1.00099	0.00792605	0.13086	0.0301984
6.87	-23.9848	408.187	-66.5689	-0.144202	0	-0.436397	0.0912923	-1.55366	0.253379	10.2363	168.58	38.8176	-0.246132	0	-1.00092	0.00594667	0.0979344	0.0225506
6.88	-23.8952	403.623	-66.6443	-0.144671	0	-0.436389	0.0926336	-1.56471	0.258357	10.1645	167.724	38.6053	-0.246122	0	-1.00091	0.00384266	0.0634078	0.0145947
6.89	-23.7329	398.86	-66.6804	-0.145183	0	-0.436371	0.0940067	-1.5799	0.264123	10.0693	167.248	38.5483	-0.246101	0	-1.00094	0.00171529	0.0284902	0.00656661
6.9	-23.4963	393.899	-66.6711	-0.145735	0	-0.436346	0.0953705	-1.59882	0.270615	9.95448	167.159	38.6419	-0.246083	0	-1.001	-0.000333479	-0.00559989	-0.00129452
6.91	-23.1864	388.74	-66.6091	-0.146323	0	-0.436317	0.0966811	-1.62094	0.277742	9.82659	167.456	38.8755	-0.246086	0	-1.00108	-0.00221393	-0.0377277	-0.00875865
6.92	-22.8041	383.391	-66.4875	-0.146942	0	-0.436285	0.0978756	-1.64552	0.285365	9.69456	168.128	39.2351	-0.246127	0	-1.00117	-0.00385802	-0.0669078	-0.0156139
6.93	-22.3514	377.865	-66.2996	-0.147589	0	-0.436257	0.0988756	-1.67156	0.293289	9.56625	169.166	39.7066	-0.246219	0	-1.00126	-0.00522363	-0.0923725	-0.0216817
6.94	-21.8343	372.175	-66.0403	-0.148258	0	-0.436232	0.0995983	-1.6977	0.301246	9.44622	170.557	40.2787	-0.246366	0	-1.00133	-0.00628755	-0.113525	-0.0268101
6.95	-21.2634	366.328	-65.705	-0.148941	0	-0.436215	0.0999656	-1.72222	0.3089	9.33664	172.297	40.9445	-0.246569	0	-1.00139	-0.0070414	-0.129941	-0.0308791
6.96	-20.6506	360.329	-65.29	-0.149627	0	-0.436208	0.0999148	-1.74339	0.315895	9.23918	174.391	41.7009	-0.246824	0	-1.00144	-0.00749581	-0.141485	-0.0338322
6.97	-20.0071	354.175	-64.7909	-0.150307	0	-0.436213	0.0994085	-1.75978	0.321924	9.15648	176.848	42.5468	-0.247124	0	-1.00149	-0.00767293	-0.148195	-0.0356533
6.98	-19.3414	347.865	-64.2038	-0.150969	0	-0.436233	0.0984369	-1.77044	0.326761	9.09202	179.68	43.4819	-0.247465	0	-1.00152	-0.00759046	-0.150005	-0.0363008
6.99	-18.661	341.409	-63.526	-0.151601	0	-0.436268	0.0970194	-1.775	0.330274	9.05	182.888	44.5038	-0.24784	0	-1.00156	-0.00726138	-0.146742	-0.0357082
7	-17.9728	334.827	-62.7561	-0.152197	0	-0.436323	0.0952021	-1.77358	0.332419	9.03435	186.47	45.6078	-0.248243	0	-1.0016	-0.00669757	-0.138239	-0.0338111
7.01	-17.2837	328.151	-61.8948	-0.152748	0	-0.436396	0.0930532	-1.76672	0.333233	9.04708	190.42	46.7877	-0.248667	0	-1.00164	-0.00591284	-0.124452	-0.0305787
7.02	-16.6006	321.425	-60.9466	-0.153253	0	-0.436486	0.0906573	-1.75533	0.332835	9.08702	194.73	48.0353	-0.249103	0	-1.00169	-0.00492421	-0.105523	-0.0260301
7.03	-15.9294	314.699	-59.919	-0.153713	0	-0.436597	0.0881018	-1.74053	0.331398	9.15045	199.387	49.3405	-0.249541	0	-1.00175	-0.00375208	-0.0817573	-0.0202317
7.04	-15.2737	308.032	-58.8216	-0.154136	0	-0.436725	0.0854569	-1.72345	0.32911	9.23278	204.373	50.691	-0.249974	0	-1.00181	-0.0024231	-0.0536368	-0.0133036
7.05	-14.6356	301.477	-57.6665	-0.154528	0	-0.436873	0.0827726	-1.70503	0.326138	9.32984	209.666	52.073	-0.250399	0	-1.00188	-0.000970492	-0.0218095	-0.00541665
7.06	-14.0187	295.081	-56.4683	-0.154895	0	-0.437037	0.0800922	-1.68587	0.322617	9.4381	215.241	53.472	-0.250814	0	-1.00195	0.000568994	0.0129762	0.00322366
7.07	-13.4291	288.88	-55.2444	-0.15524	0	-0.437216	0.0774642	-1.66637	0.318672	9.55475	221.068	54.874	-0.251216	0	-1.00202	0.00216185	0.0500187	0.0124158
7.08	-12.8739	282.902	-54.0145	-0.155562	0	-0.437405	0.0749395	-1.64678	0.31442	9.67829	227.115	56.267	-0.251604	0	-1.00208	0.0037811	0.0887288	0.0219823
7.09	-12.3598	277.174	-52.7982	-0.155863	0	-0.437597	0.0725639	-1.62727	0.309975	9.80846	233.345	57.6396	-0.251975	0	-1.00214	0.00540489	0.128583	0.0317619
7.1	-11.8911	271.725	-51.6139	-0.156139	0	-0.43779	0.0703698	-1.60802	0.305442	9.94565	239.722	58.981	-0.25233	0	-1.00219	0.00702017	0.169209	0.041632
7.11	-11.4705	266.578	-50.4763	-0.15639	0	-0.43798	0.0683816	-1.58921	0.300916	10.0904	246.209	60.28	-0.252664	0	-1.00223	0.00861861	0.210297	0.0514874
7.12	-11.0999	261.749	-49.3954	-0.156619	0	-0.438164	0.0666255	-1.5711	0.296488	10.2424	252.773	61.526	-0.252977	0	-1.00226	0.0101925	0.251541	0.0612261
7.13	-10.78	257.246	-48.376	-0.156831	0	-0.43834	0.0651211	-1.554	0.292235	10.3994	259.384	62.7107	-0.253267	0	-1.00226	0.0117322	0.292626	0.0707475
7.14	-10.506	253.067	-47.4181	-0.15704	0	-0.438505	0.0638608	-1.53828	0.288232	10.5568	266.019	63.8288	-0.253531	0	-1.00224	0.0132207	0.333147	0.0799354
7.15	-10.2663	249.212	-46.5196	-0.157268	0	-0.43866	0.0627994	-1.52444	0.284561	10.7077	272.66	64.8781	-0.253763	0	-1.00219	0.0146328	0.372611	0.0886609
7.16	-10.0453	245.682	-45.6797	-0.157544	0	-0.438804	0.0618565	-1.51286	0.281286	10.8435	279.297	65.8589	-0.253966	0	-1.00213	0.0159373	0.410501	0.0967971
